<?xml version="1.0" encoding="UTF-8"?>
<svg xmlns="http://www.w3.org/2000/svg" xmlns:xlink="http://www.w3.org/1999/xlink" width="100px" height="100px" viewBox="0 0 100 100" version="1.1">
<g id="surface1">
<path style="fill:none;stroke-width:7;stroke-linecap:butt;stroke-linejoin:miter;stroke:rgb(0%,0%,0%);stroke-opacity:1;stroke-miterlimit:4;" d="M 34.001406 4.000312 C 17.632344 4.544844 4.731562 18.112969 5.007187 34.483437 C 5.275156 50.853906 18.627656 63.98375 34.996719 63.98375 C 51.373438 63.98375 64.725938 50.853906 64.993906 34.483437 C 65.269531 18.112969 52.361094 4.544844 35.999688 4.000312 Z M 76.003594 4.000312 C 59.634531 4.544844 46.73375 18.112969 47.001719 34.483437 C 47.277344 50.853906 60.629844 63.98375 76.998906 63.98375 C 93.375625 63.98375 106.720469 50.853906 106.996094 34.483437 C 107.271719 18.112969 94.363281 4.544844 78.001875 4.000312 Z M 117.998125 4.000312 C 101.636719 4.544844 88.728281 18.112969 89.003906 34.483437 C 89.279531 50.853906 102.624375 63.98375 119.001094 63.98375 C 135.370156 63.98375 148.722656 50.853906 148.998281 34.483437 C 149.26625 18.112969 136.365469 4.544844 119.996406 4.000312 Z M 160.000313 4.000312 C 143.638906 4.544844 130.730469 18.112969 131.006094 34.483437 C 131.274062 50.853906 144.626563 63.98375 161.003281 63.98375 C 177.372344 63.98375 190.724844 50.853906 190.992812 34.483437 C 191.268438 18.112969 178.367656 4.544844 161.998594 4.000312 Z M 160.000313 4.000312 " transform="matrix(0.510204,0,0,1.470588,0,0)"/>
</g>
</svg>
