<?xml version="1.0" encoding="UTF-8"?>
<svg xmlns="http://www.w3.org/2000/svg" xmlns:xlink="http://www.w3.org/1999/xlink" width="100px" height="100px" viewBox="0 0 100 100" version="1.1">
<g id="surface1">
<path style=" stroke:none;fill-rule:nonzero;fill:rgb(0.392157%,40%,69.411765%);fill-opacity:1;" d="M 79.628906 50 C 79.628906 66.375 66.375 79.628906 50 79.628906 L 50 50 Z M 50 20.371094 L 50 50 L 20.371094 50 C 20.371094 33.625 33.625 20.371094 50 20.371094 Z M 50 20.371094 "/>
<path style=" stroke:none;fill-rule:nonzero;fill:rgb(100%,100%,100%);fill-opacity:1;" d="M 50 20.371094 C 66.375 20.371094 79.628906 33.625 79.628906 50 L 50 50 Z M 20.371094 50 L 50 50 L 50 79.628906 C 33.625 79.628906 20.371094 66.375 20.371094 50 Z M 20.371094 50 "/>
<path style=" stroke:none;fill-rule:nonzero;fill:rgb(43.529412%,43.529412%,43.529412%);fill-opacity:1;" d="M 50 20.371094 L 50 21.996094 C 65.441406 21.996094 78.003906 34.554688 78.003906 50 L 79.628906 50 C 79.628906 33.636719 66.363281 20.371094 50 20.371094 M 50 78.003906 C 34.558594 78.003906 21.996094 65.445312 21.996094 50 L 20.371094 50 C 20.371094 66.363281 33.636719 79.628906 50 79.628906 M 50 0 C 22.386719 0 0 22.386719 0 50 C 0 77.613281 22.386719 100 50 100 C 77.613281 100 100 77.613281 100 50 C 100 22.386719 77.613281 0 50 0 Z M 96.75 50 C 96.75 75.816406 75.820312 96.75 50 96.75 C 24.179688 96.75 3.25 75.816406 3.25 50 C 3.25 24.183594 24.183594 3.25 50 3.25 C 75.816406 3.25 96.75 24.183594 96.75 50 Z M 96.75 50 "/>
<path style=" stroke:none;fill-rule:nonzero;fill:rgb(43.529412%,43.529412%,43.529412%);fill-opacity:1;" d="M 28.632812 25.878906 C 30.230469 24.207031 31.136719 22.277344 29.539062 20.433594 C 28.667969 19.433594 27.207031 19.214844 26 19.707031 L 25.878906 19.753906 L 25.914062 19.648438 C 26.09375 19.171875 26.210938 17.65625 24.910156 16.609375 C 24.273438 16.097656 23.476562 15.910156 22.671875 15.992188 C 21.171875 16.144531 20.019531 17.160156 16.875 20.640625 C 15.925781 21.691406 14.546875 23.347656 13.71875 24.421875 C 13.71875 24.421875 22.351562 32.550781 22.351562 32.550781 C 25.210938 29.410156 26.378906 28.238281 28.632812 25.878906 Z M 17.367188 23.890625 C 19.109375 21.777344 20.957031 19.863281 21.792969 19.101562 C 22.058594 18.863281 22.34375 18.625 22.695312 18.53125 C 23.261719 18.375 23.84375 18.777344 23.976562 19.355469 C 24.109375 19.933594 23.742188 20.484375 23.335938 20.941406 C 22.414062 21.96875 19.042969 25.472656 19.042969 25.472656 C 19.042969 25.472656 17.367188 23.890625 17.367188 23.890625 Z M 20.75 27.074219 C 20.75 27.074219 24.035156 23.628906 25.105469 22.523438 C 25.53125 22.085938 25.804688 21.820312 26.097656 21.679688 C 26.476562 21.496094 26.890625 21.457031 27.261719 21.703125 C 27.625 21.945312 27.792969 22.359375 27.703125 22.777344 C 27.59375 23.269531 27.1875 23.738281 26.851562 24.097656 C 26.402344 24.578125 22.507812 28.71875 22.5 28.722656 Z M 50.988281 16.179688 L 53.75 10.03125 L 53.925781 9.488281 L 53.875 10.054688 L 54.167969 18.273438 C 55.136719 18.363281 56.136719 18.496094 57.125 18.660156 L 56.675781 6.492188 C 55.296875 6.339844 53.921875 6.230469 52.546875 6.171875 L 49.824219 12.882812 L 49.726562 13.382812 L 49.628906 12.882812 L 46.910156 6.171875 C 45.535156 6.230469 44.160156 6.339844 42.78125 6.492188 L 42.332031 18.660156 C 43.316406 18.496094 44.320312 18.363281 45.289062 18.273438 L 45.578125 10.054688 L 45.53125 9.488281 L 45.707031 10.03125 L 48.46875 16.179688 Z M 73.941406 28.902344 C 74.617188 29.625 75.597656 30.789062 76.144531 31.5 L 86.261719 25.125 C 85.757812 24.46875 84.953125 23.46875 84.347656 22.765625 L 77.941406 26.972656 L 77.503906 27.347656 L 77.832031 26.875 L 80.660156 21.265625 L 78.660156 19.28125 L 73.011719 22.089844 L 72.535156 22.414062 L 72.914062 21.980469 L 77.152344 15.621094 C 76.40625 14.992188 75.691406 14.414062 74.777344 13.710938 L 68.355469 23.75 C 69.171875 24.371094 70.242188 25.285156 70.925781 25.90625 L 76.972656 22.789062 L 77.359375 22.507812 L 77.074219 22.890625 Z M 73.941406 28.902344 "/>
</g>
</svg>
