<?xml version="1.0" encoding="UTF-8"?>
<svg xmlns="http://www.w3.org/2000/svg" xmlns:xlink="http://www.w3.org/1999/xlink" width="100px" height="100px" viewBox="0 0 100 100" version="1.1">
<g id="surface1">
<path style=" stroke:none;fill-rule:nonzero;fill:rgb(0%,0%,0%);fill-opacity:1;" d="M 27.296875 99.726562 L 29.507812 99.726562 L 29.507812 91.480469 L 35.125 91.480469 L 35.125 89.558594 L 21.675781 89.558594 L 21.675781 91.480469 L 27.296875 91.480469 Z M 27.296875 99.726562 "/>
<path style=" stroke:none;fill-rule:nonzero;fill:rgb(0%,0%,0%);fill-opacity:1;" d="M 16.933594 89.558594 L 19.144531 89.558594 L 19.144531 99.726562 L 16.933594 99.726562 Z M 16.933594 89.558594 "/>
<path style=" stroke:none;fill-rule:nonzero;fill:rgb(0%,0%,0%);fill-opacity:1;" d="M 94.964844 89.605469 L 86.875 89.605469 L 86.875 99.761719 L 89.085938 99.761719 L 89.085938 91.527344 L 94.445312 91.527344 C 96.53125 91.527344 97.835938 92.3125 97.835938 94.707031 L 97.835938 99.757812 L 100.050781 99.757812 L 100.050781 94.421875 C 100.046875 91.714844 98.527344 89.605469 94.964844 89.605469 "/>
<path style=" stroke:none;fill-rule:nonzero;fill:rgb(0%,0%,0%);fill-opacity:1;" d="M 78.953125 88.347656 L 82.207031 88.347656 C 82.574219 88.347656 82.894531 88.015625 82.894531 87.621094 C 82.894531 87.210938 82.574219 86.882812 82.207031 86.882812 L 78.953125 86.882812 C 78.554688 86.882812 78.230469 87.210938 78.230469 87.621094 C 78.230469 88.015625 78.554688 88.347656 78.953125 88.347656 "/>
<path style=" stroke:none;fill-rule:nonzero;fill:rgb(0%,0%,0%);fill-opacity:1;" d="M 47.195312 95.742188 C 50.253906 95.667969 51.261719 94.832031 51.261719 92.691406 C 51.261719 90.753906 49.910156 89.605469 47.625 89.605469 L 37.660156 89.605469 L 37.660156 99.761719 L 39.871094 99.761719 L 39.871094 91.527344 L 47.640625 91.527344 C 48.515625 91.527344 48.976562 91.933594 48.976562 92.738281 C 48.976562 93.445312 48.757812 94.132812 47.332031 94.089844 L 41.746094 94.089844 L 41.746094 94.675781 L 48.5625 99.726562 L 51.769531 99.726562 L 46.101562 95.742188 Z M 47.195312 95.742188 "/>
<path style=" stroke:none;fill-rule:nonzero;fill:rgb(0%,0%,0%);fill-opacity:1;" d="M 63.402344 89.390625 C 62.730469 89.363281 62.042969 89.347656 61.359375 89.347656 C 60.195312 89.347656 59.441406 89.390625 59.433594 89.390625 L 59.398438 89.390625 C 57.789062 89.441406 56.417969 89.992188 55.433594 90.980469 C 54.492188 91.925781 53.972656 93.238281 53.972656 94.675781 L 53.972656 94.691406 C 53.972656 97.773438 56.160156 99.898438 59.414062 99.976562 C 60.085938 100.007812 60.773438 100.019531 61.457031 100.019531 C 62.621094 100.019531 63.375 99.976562 63.382812 99.976562 L 63.417969 99.976562 C 65.027344 99.921875 66.398438 99.371094 67.382812 98.386719 C 68.324219 97.441406 68.84375 96.128906 68.84375 94.691406 L 68.84375 94.675781 C 68.84375 91.652344 66.65625 89.527344 63.402344 89.390625 M 66.488281 94.65625 C 66.480469 96.613281 65.238281 97.882812 63.246094 97.96875 L 63.199219 97.96875 L 63.15625 97.972656 C 63.035156 97.980469 62.566406 98.015625 61.558594 98.015625 C 60.882812 98.015625 60.234375 98 59.632812 97.972656 L 59.597656 97.96875 C 57.582031 97.917969 56.332031 96.648438 56.332031 94.65625 C 56.332031 92.683594 57.574219 91.410156 59.574219 91.324219 L 59.617188 91.324219 L 59.660156 91.320312 C 59.664062 91.320312 60.496094 91.277344 61.636719 91.277344 C 62.277344 91.277344 62.554688 91.292969 63.097656 91.320312 L 63.183594 91.320312 C 65.253906 91.421875 66.488281 92.660156 66.488281 94.640625 Z M 66.488281 94.65625 "/>
<path style=" stroke:none;fill-rule:nonzero;fill:rgb(0%,0%,0%);fill-opacity:1;" d="M 83.785156 97.839844 L 73.929688 97.839844 L 73.929688 95.554688 L 82.574219 95.554688 L 82.574219 93.714844 L 73.929688 93.714844 L 73.929688 91.527344 L 83.785156 91.527344 L 83.785156 89.605469 L 71.71875 89.605469 L 71.71875 99.761719 L 83.785156 99.761719 Z M 83.785156 97.839844 "/>
<path style=" stroke:none;fill-rule:nonzero;fill:rgb(0%,0%,0%);fill-opacity:1;" d="M 73.300781 88.347656 L 76.542969 88.347656 C 76.925781 88.347656 77.25 88.015625 77.25 87.621094 C 77.25 87.210938 76.925781 86.882812 76.542969 86.882812 L 73.300781 86.882812 C 72.902344 86.882812 72.578125 87.210938 72.578125 87.621094 C 72.578125 88.015625 72.902344 88.347656 73.300781 88.347656 "/>
<path style=" stroke:none;fill-rule:nonzero;fill:rgb(0%,0%,0%);fill-opacity:1;" d="M 5.355469 89.636719 L 5.320312 89.636719 C 3.742188 89.6875 2.398438 90.210938 1.433594 91.144531 C 0.507812 92.042969 0 93.289062 0 94.652344 L 0 94.667969 C 0 97.59375 2.144531 99.609375 5.332031 99.683594 C 6.230469 99.722656 8.9375 99.726562 10.0625 99.726562 C 11.511719 99.726562 12.898438 99.722656 13.308594 99.714844 L 13.308594 97.769531 C 12.691406 97.777344 7.992188 97.785156 7.4375 97.785156 C 6.78125 97.785156 6.125 97.773438 5.53125 97.746094 C 3.578125 97.695312 2.3125 96.488281 2.3125 94.667969 C 2.3125 92.847656 3.558594 91.621094 5.492188 91.546875 L 5.535156 91.546875 L 5.574219 91.542969 C 5.582031 91.542969 6.394531 91.503906 7.515625 91.503906 C 7.828125 91.503906 12.65625 91.507812 13.3125 91.519531 L 13.3125 89.613281 C 12.875 89.601562 12.195312 89.597656 11.289062 89.597656 C 8.804688 89.597656 5.386719 89.636719 5.355469 89.636719 "/>
<path style=" stroke:none;fill-rule:nonzero;fill:rgb(0%,0%,0%);fill-opacity:1;" d="M 50.023438 0 C 33.621094 0 20.277344 16.980469 20.277344 37.851562 C 20.277344 58.722656 33.621094 75.703125 50.023438 75.703125 C 66.425781 75.703125 79.773438 58.722656 79.773438 37.851562 C 79.773438 16.980469 66.429688 0 50.023438 0 Z M 25.761719 50.953125 L 25.730469 50.863281 C 24.746094 47.738281 24.453125 45 24.449219 44.972656 L 24.445312 44.933594 L 24.476562 44.910156 L 50.023438 25.542969 L 75.605469 44.933594 L 75.601562 44.972656 C 75.597656 45 75.304688 47.738281 74.320312 50.863281 L 74.289062 50.953125 L 74.21875 50.898438 L 74.214844 50.902344 L 50.023438 32.503906 L 25.761719 50.957031 Z M 50.023438 72.132812 C 41.503906 72.132812 33.527344 66.722656 28.589844 57.632812 L 28.53125 57.515625 L 50.023438 41.21875 L 71.519531 57.515625 L 71.460938 57.621094 C 66.527344 66.71875 58.550781 72.132812 50.023438 72.132812 Z M 50.023438 16.679688 L 23.785156 36.636719 L 23.789062 36.5 C 24.054688 27.644531 26.902344 19.367188 31.804688 13.1875 C 36.730469 6.988281 43.199219 3.574219 50.023438 3.574219 C 56.851562 3.574219 63.320312 6.988281 68.242188 13.1875 C 73.148438 19.367188 75.996094 27.644531 76.261719 36.5 L 76.265625 36.636719 L 76.15625 36.554688 Z M 50.023438 16.679688 "/>
</g>
</svg>
