<?xml version="1.0" encoding="UTF-8"?>
<svg xmlns="http://www.w3.org/2000/svg" xmlns:xlink="http://www.w3.org/1999/xlink" width="100px" height="100px" viewBox="0 0 100 100" version="1.1">
<g id="surface1">
<path style=" stroke:none;fill-rule:nonzero;fill:rgb(0%,0%,0%);fill-opacity:1;" d="M 26.207031 0 L 37.066406 0 L 37.066406 100 L 26.207031 100 Z M 72.769531 0 L 72.769531 12.066406 L 81.191406 12.066406 L 81.191406 100 L 91.714844 100 L 91.714844 12.066406 L 100 12.066406 L 100 0 Z M 0 100 L 10.523438 100 L 10.523438 54.632812 L 19.488281 54.632812 L 19.488281 42.734375 L 10.523438 42.734375 L 10.523438 12.066406 L 22.21875 12.066406 L 22.21875 0 L 0 0 Z M 74.164062 93.449219 C 74.167969 95.640625 74.167969 97.824219 74.167969 100 L 64.324219 100 C 64.316406 96.214844 64.308594 92.414062 64.304688 88.59375 C 64.296875 84.78125 64.28125 80.957031 64.25 77.148438 C 64.1875 69.542969 64.058594 61.960938 63.757812 54.632812 L 52.179688 54.632812 L 52.179688 100 L 42.726562 100 L 42.726562 0 L 64.933594 0 C 66.28125 3.441406 67.421875 7.015625 68.347656 10.6875 C 69.304688 14.484375 70.097656 18.347656 70.722656 22.265625 C 71.367188 26.246094 71.878906 30.351562 72.292969 34.527344 C 72.707031 38.703125 73.019531 42.972656 73.261719 47.285156 C 73.503906 51.59375 73.675781 55.976562 73.800781 60.363281 C 73.925781 64.746094 74.007812 69.1875 74.058594 73.601562 C 74.113281 78 74.136719 82.472656 74.152344 86.855469 C 74.160156 89.058594 74.164062 91.257812 74.164062 93.449219 Z M 63.085938 42.734375 C 62.238281 31.300781 60.789062 20.714844 58.277344 12.066406 L 52.179688 12.066406 L 52.179688 42.734375 Z M 63.085938 42.734375 "/>
</g>
</svg>
