<?xml version="1.0" encoding="UTF-8"?>
<svg xmlns="http://www.w3.org/2000/svg" xmlns:xlink="http://www.w3.org/1999/xlink" width="100px" height="100px" viewBox="0 0 100 100" version="1.1">
<g id="surface1">
<path style=" stroke:none;fill-rule:nonzero;fill:rgb(0%,20.392157%,47.058824%);fill-opacity:1;" d="M 49.714844 1.515625 C 22.441406 1.515625 0.582031 22.816406 0.582031 49.527344 C 0.582031 76.074219 22.621094 97.542969 49.714844 97.542969 C 76.804688 97.542969 98.847656 76 98.847656 49.527344 C 98.847656 23.054688 76.804688 1.515625 49.714844 1.515625 "/>
<path style=" stroke:none;fill-rule:nonzero;fill:rgb(100%,100%,100%);fill-opacity:1;" d="M 69.066406 59.699219 C 69.082031 59.917969 69.191406 60.128906 69.296875 60.226562 C 69.335938 60.261719 69.355469 60.332031 69.316406 60.566406 C 69.011719 62.273438 68.730469 63.257812 68.34375 64.742188 C 67.992188 66.117188 67.59375 67.1875 67.113281 68.214844 C 66.386719 69.78125 65.378906 71.484375 64.546875 70.339844 C 64.175781 69.839844 64.015625 68.488281 64.023438 67.394531 C 64.042969 64.324219 64.566406 61.167969 65.535156 58.066406 C 66.714844 54.28125 68.019531 52.316406 68.878906 53.390625 C 69.765625 54.492188 69.480469 57.164062 69.085938 59.265625 C 69.054688 59.425781 69.054688 59.5625 69.066406 59.695312 M 78.578125 35.753906 C 78.640625 35.460938 78.574219 35.246094 78.433594 35.246094 C 77.691406 35.246094 76.722656 35.25 75.949219 35.25 C 75.765625 35.25 75.671875 35.308594 75.585938 35.753906 C 75.300781 37.175781 71.832031 50.730469 71.183594 53.359375 C 71.074219 53.761719 70.941406 53.707031 70.925781 53.246094 C 70.863281 51.683594 70.34375 49.886719 69.527344 49.027344 C 68.90625 48.367188 68.296875 48.25 67.664062 48.46875 C 66.523438 48.867188 65.507812 50.4375 64.613281 52.207031 C 63.265625 54.875 62.105469 58.335938 60.601562 60.890625 C 59.785156 62.285156 58.664062 63.496094 57.910156 61.6875 C 57.230469 60.042969 57.308594 56.398438 58.347656 53.578125 C 58.457031 53.285156 58.589844 53.535156 58.570312 53.796875 C 58.46875 55.070312 58.589844 56.339844 58.960938 57.226562 C 59.414062 58.289062 60.066406 58.40625 60.621094 57.699219 C 61.277344 56.851562 61.660156 55.21875 61.773438 53.363281 C 61.945312 50.488281 61.097656 47.949219 60.035156 47.746094 C 59.167969 47.585938 58.339844 48.371094 57.535156 50.105469 C 57.128906 50.980469 56.898438 51.628906 56.550781 52.925781 C 56.464844 53.246094 56.332031 53.277344 56.335938 52.804688 C 56.375 49.121094 55.792969 47.050781 54.625 46.980469 C 53.714844 46.925781 52.746094 48.207031 51.992188 49.777344 C 51.164062 51.511719 50.441406 53.808594 49.664062 55.964844 C 49.566406 56.230469 49.484375 56.21875 49.457031 55.703125 C 49.433594 53.261719 49.199219 50.898438 48.765625 49.21875 C 48.609375 48.632812 48.289062 48.347656 48.015625 48.738281 C 47.890625 48.917969 47.457031 49.441406 47.136719 50.105469 C 46.980469 50.445312 46.917969 50.933594 46.988281 51.558594 C 47.40625 55.207031 47.316406 59.351562 46.746094 62.855469 C 46.226562 66.0625 45.214844 68.953125 44.023438 69.933594 C 43.238281 70.582031 42.421875 70.265625 41.917969 68.453125 C 41.226562 65.949219 41.503906 61.601562 42.539062 57.988281 C 43.449219 54.808594 44.769531 52.789062 46.082031 51.488281 C 46.238281 51.332031 46.269531 51.074219 46.226562 50.730469 C 46.15625 50.167969 46.042969 49.398438 45.996094 49.050781 C 45.875 48.210938 45.535156 48.078125 45.125 48.195312 C 44.167969 48.484375 43.304688 49.335938 42.453125 50.523438 C 40.226562 53.636719 39.105469 59.660156 38.617188 62.882812 C 38.378906 64.429688 38.179688 65.394531 37.917969 66.253906 C 37.566406 67.402344 37.125 68.453125 36.320312 70.296875 C 36.246094 70.46875 36.191406 70.820312 36.253906 71.148438 C 36.335938 71.59375 36.753906 73.140625 36.871094 73.277344 C 37.003906 73.445312 37.15625 73.207031 37.21875 73.09375 C 37.78125 72.097656 38.457031 70.515625 38.789062 69.445312 C 38.90625 69.078125 39.023438 69.230469 39.085938 69.789062 C 39.394531 72.65625 40.203125 75 41.320312 75.980469 C 43.363281 77.777344 45.484375 75.175781 47.085938 70.648438 C 48.101562 67.769531 48.46875 65.917969 48.859375 64.660156 C 49.519531 62.527344 50.824219 57.753906 52.375 54.6875 C 52.945312 53.558594 53.621094 52.695312 53.957031 53.265625 C 54.230469 53.726562 54.320312 54.792969 53.882812 56.863281 C 52.300781 64.394531 49.96875 73.246094 49.542969 75.394531 C 49.464844 75.765625 49.535156 76.058594 49.683594 76.058594 C 50.511719 76.046875 51.332031 76.054688 52.085938 76.054688 C 52.210938 76.042969 52.265625 75.890625 52.328125 75.660156 C 53.542969 70.703125 54.6875 65.984375 55.910156 61.109375 C 55.980469 60.820312 56.042969 61.039062 56.046875 61.164062 C 56.074219 62.296875 56.179688 63.84375 56.4375 64.859375 C 56.898438 66.738281 57.554688 67.546875 58.285156 67.558594 C 58.863281 67.582031 59.15625 67.347656 59.78125 66.738281 C 60.289062 66.25 60.699219 65.605469 61.011719 65.019531 C 61.195312 64.6875 61.226562 65.242188 61.222656 65.328125 C 60.941406 69.261719 61.289062 73.925781 62.789062 75.855469 C 64.582031 78.164062 66.554688 74.921875 67.691406 71.992188 C 67.800781 71.710938 67.921875 71.742188 67.933594 72.351562 C 67.960938 73.46875 68.152344 74.792969 68.503906 75.722656 C 69.457031 78.210938 71.375 77.222656 73.304688 73.339844 C 74.539062 70.851562 75.832031 67.335938 77.003906 63.613281 C 77.046875 63.46875 77.078125 63.238281 76.992188 63.003906 C 76.816406 62.519531 76.558594 61.960938 76.382812 61.535156 C 76.300781 61.355469 76.183594 61.40625 76.117188 61.542969 C 74.917969 64.511719 73.839844 67.898438 72.28125 70.699219 C 71.753906 71.65625 70.917969 72.425781 70.539062 71.097656 C 70.394531 70.582031 70.410156 69.871094 70.554688 68.933594 C 71.007812 65.980469 78.203125 37.429688 78.578125 35.746094 "/>
<path style=" stroke:none;fill-rule:nonzero;fill:rgb(100%,100%,100%);fill-opacity:1;" d="M 44.722656 39.199219 C 44.753906 39.625 44.816406 39.707031 44.890625 39.671875 C 45.257812 39.480469 45.660156 38.691406 45.894531 37.78125 C 46.113281 36.957031 46.214844 35.765625 46 35.289062 C 45.808594 34.859375 45.496094 34.980469 45.265625 35.511719 C 44.804688 36.574219 44.664062 38.078125 44.722656 39.199219 M 26.382812 75.953125 C 23.699219 76 21.335938 71.679688 21.0625 64.199219 C 20.914062 60.054688 21.363281 56.359375 22.261719 53.316406 C 23.0625 50.605469 24.414062 48.351562 25.558594 47.800781 C 25.929688 47.625 26.429688 47.730469 26.636719 48.378906 C 26.960938 49.363281 26.867188 50.441406 26.542969 50.875 C 25.671875 52.035156 24.621094 54.023438 24.101562 56.738281 C 23.679688 58.953125 23.59375 61.625 24.238281 64.167969 C 25.316406 68.40625 28.320312 68.523438 31.113281 61.761719 C 31.804688 60.109375 32.421875 58.519531 33.050781 56.632812 C 34.28125 52.96875 34.691406 51.632812 36.324219 45.722656 C 36.34375 45.65625 36.351562 45.566406 36.34375 45.523438 C 36.328125 45.441406 36.308594 45.429688 36.257812 45.417969 C 35.167969 45.5 34.214844 46.347656 33.289062 48.148438 C 33.023438 48.652344 32.640625 48.582031 32.472656 47.914062 C 32.285156 47.164062 32.421875 46.179688 32.726562 45.628906 C 34.214844 42.929688 35.839844 42.441406 37.5 41.710938 C 37.5 41.710938 37.617188 41.722656 37.710938 41.398438 C 38.390625 39.117188 38.90625 37.0625 39.632812 34.757812 C 40.363281 32.417969 41.308594 30.273438 42.03125 28.660156 C 43.039062 26.398438 43.6875 25.640625 44.34375 24.707031 C 44.519531 24.472656 44.324219 24.191406 44.269531 24.191406 C 40.601562 22.394531 36.789062 20.066406 33.144531 23.582031 C 30.621094 26.039062 29.515625 31.253906 30.046875 34.738281 C 30.425781 37.207031 31.671875 37.609375 32.839844 36.121094 C 33.808594 34.882812 34.707031 32.886719 35.34375 30.316406 C 35.699219 28.890625 36.449219 29.917969 36.046875 32.398438 C 34.980469 38.929688 32.941406 44.109375 30.460938 44.328125 C 28.347656 44.507812 26.988281 40.457031 26.992188 35.464844 C 27 25.613281 31.207031 19.125 35.628906 18.152344 C 40.957031 17.007812 46 20.703125 51.289062 22.375 C 55.339844 23.652344 59.226562 23.679688 63.296875 21.242188 C 63.777344 20.96875 64.117188 21.769531 64.085938 23.039062 C 64.046875 24.871094 63.5 26.632812 62.160156 28.539062 C 60.632812 30.71875 59.039062 31.382812 57.371094 31.417969 C 53.34375 31.507812 49.589844 27.410156 45.703125 25.210938 C 45.707031 25.652344 45.753906 26.183594 45.609375 26.460938 C 43.457031 30.597656 41.511719 34.796875 40.210938 40.699219 C 40.167969 40.835938 40.1875 40.964844 40.265625 40.949219 C 41.398438 40.792969 42.414062 40.71875 43.46875 40.496094 C 43.65625 40.453125 43.660156 40.335938 43.644531 39.988281 C 43.550781 37.953125 43.78125 35.632812 44.464844 34.039062 C 45.167969 32.398438 46.046875 32.210938 46.632812 33.394531 C 47.292969 34.738281 47.234375 37.160156 46.875 38.976562 C 46.503906 40.820312 45.894531 41.804688 45.308594 42.28125 C 45.308594 42.28125 45.1875 42.351562 45.203125 42.640625 C 45.226562 43.105469 46.023438 44.257812 46.09375 44.566406 C 46.160156 44.855469 46.125 45.308594 46.003906 45.65625 C 45.917969 45.910156 45.789062 46.144531 45.617188 46.136719 C 45.480469 46.128906 45.398438 46.003906 45.222656 45.757812 C 44.867188 45.253906 44.417969 44.425781 44.121094 43.445312 C 44.019531 43.113281 43.96875 43.105469 43.714844 43.144531 C 42.570312 43.316406 40.789062 43.765625 39.582031 44.15625 C 39.289062 44.25 39.246094 44.394531 39.1875 44.660156 C 37.261719 52.929688 35.207031 61.847656 32.949219 67.820312 C 30.53125 74.222656 28.519531 75.910156 26.382812 75.953125 "/>
<path style=" stroke:none;fill-rule:nonzero;fill:rgb(100%,100%,100%);fill-opacity:1;" d="M 49.714844 9.367188 C 24.625 9.367188 4.289062 27.433594 4.289062 49.542969 C 4.289062 71.652344 24.625 89.722656 49.714844 89.722656 C 74.800781 89.722656 95.136719 71.652344 95.136719 49.542969 C 95.136719 27.433594 74.800781 9.367188 49.714844 9.367188 M 49.714844 93.363281 C 23.710938 93.363281 2.632812 73.746094 2.632812 49.542969 C 2.632812 25.335938 23.710938 5.722656 49.714844 5.722656 C 75.714844 5.722656 96.789062 25.335938 96.789062 49.542969 C 96.789062 73.746094 75.714844 93.363281 49.714844 93.363281 "/>
</g>
</svg>
