<?xml version="1.0" standalone="no"?>
<!DOCTYPE svg PUBLIC "-//W3C//DTD SVG 20010904//EN"
 "http://www.w3.org/TR/2001/REC-SVG-20010904/DTD/svg10.dtd">
<svg version="1.0" xmlns="http://www.w3.org/2000/svg"
 width="100px" height="100px" viewBox="0 0 100.000000 100.000000"
 preserveAspectRatio="xMidYMid meet">

<g transform="translate(0.000000,100.000000) scale(0.100000,-0.100000)"
fill="#000000" stroke="none">
<path d="M370 954 c-149 -40 -286 -179 -325 -329 -44 -170 0 -332 124 -456 97
-97 197 -139 331 -139 134 0 234 42 331 139 97 97 138 196 139 331 0 169 -90
325 -240 413 -94 55 -245 72 -360 41z m117 -51 c-3 -16 -15 -104 -28 -196
l-22 -168 -149 -117 c-82 -64 -155 -117 -161 -117 -7 0 -22 29 -34 65 -77 225
50 466 285 541 31 10 70 18 86 18 26 1 28 -2 23 -26z m118 13 c106 -28 210
-105 262 -194 37 -62 63 -155 63 -222 0 -58 -32 -184 -50 -195 -5 -3 -78 48
-163 114 l-153 120 -23 173 c-12 95 -25 183 -28 196 -6 27 16 29 92 8z m80
-567 c96 -40 175 -76 175 -81 0 -17 -94 -110 -138 -135 -178 -104 -395 -74
-535 76 -26 27 -47 54 -47 59 0 9 335 151 357 152 7 0 92 -32 188 -71z"/>
</g>
</svg>
