<?xml version="1.0" standalone="no"?>
<!DOCTYPE svg PUBLIC "-//W3C//DTD SVG 20010904//EN"
 "http://www.w3.org/TR/2001/REC-SVG-20010904/DTD/svg10.dtd">
<svg version="1.0" xmlns="http://www.w3.org/2000/svg"
 width="100px" height="100.px" viewBox="0 0 100.000000 100.000000"
 preserveAspectRatio="xMidYMid meet">

<g transform="translate(0.000000,100.000000) scale(0.100000,-0.100000)"
fill="#000000" stroke="none">
<path d="M360 916 c-74 -21 -135 -59 -124 -78 3 -5 13 -3 23 6 25 23 102 54
141 59 19 2 44 8 55 15 18 10 16 11 -15 11 -19 -1 -55 -6 -80 -13z"/>
<path d="M520 919 c14 -7 36 -14 50 -16 48 -7 114 -33 136 -54 16 -15 24 -17
29 -8 17 27 -90 76 -185 84 -48 5 -52 4 -30 -6z"/>
<path d="M455 809 c-4 -6 -5 -12 -2 -15 2 -3 7 2 10 11 7 17 1 20 -8 4z"/>
<path d="M571 804 c0 -11 3 -14 6 -6 3 7 2 16 -1 19 -3 4 -6 -2 -5 -13z"/>
<path d="M392 790 c0 -14 2 -19 5 -12 2 6 2 18 0 25 -3 6 -5 1 -5 -13z"/>
<path d="M511 805 c1 -19 18 -51 18 -35 0 8 -4 22 -9 30 -5 8 -9 11 -9 5z"/>
<path d="M790 760 c-16 -39 -66 -72 -142 -96 -62 -19 -79 -37 -25 -28 50 10
119 43 150 72 23 22 29 24 37 12 18 -28 12 -143 -9 -184 -19 -37 -19 -38 -1
-21 11 10 24 33 31 53 14 44 7 158 -13 196 l-15 28 -13 -32z"/>
<path d="M151 754 c-19 -41 -25 -135 -12 -175 6 -19 22 -47 36 -64 l24 -30
-25 50 c-21 42 -25 61 -22 117 2 37 7 70 10 74 4 4 23 -7 42 -24 20 -18 64
-40 102 -52 76 -23 74 -23 74 -11 0 5 -30 18 -67 30 -65 19 -115 54 -138 95
-10 17 -12 16 -24 -10z"/>
<path d="M580 755 c0 -14 4 -25 9 -25 4 0 6 11 3 25 -2 14 -6 25 -8 25 -2 0
-4 -11 -4 -25z"/>
<path d="M442 750 c0 -14 2 -19 5 -12 2 6 2 18 0 25 -3 6 -5 1 -5 -13z"/>
<path d="M680 760 c-9 -6 -10 -10 -3 -10 6 0 15 5 18 10 8 12 4 12 -15 0z"/>
<path d="M376 745 c-3 -8 -1 -15 4 -15 6 0 10 7 10 15 0 8 -2 15 -4 15 -2 0
-6 -7 -10 -15z"/>
<path d="M440 631 c0 -11 89 -11 96 0 3 5 -18 9 -45 9 -28 0 -51 -4 -51 -9z"/>
<path d="M382 540 c0 -14 2 -19 5 -12 2 6 2 18 0 25 -3 6 -5 1 -5 -13z"/>
<path d="M571 494 c-15 -66 -32 -103 -58 -130 -17 -17 -16 -17 32 -11 27 4 54
12 60 18 7 8 1 9 -24 4 -32 -7 -34 -6 -27 16 25 84 37 133 34 146 -2 9 -9 -11
-17 -43z"/>
<path d="M850 521 c-19 -47 -92 -116 -154 -145 -78 -37 -146 -49 -245 -44
-103 6 -182 32 -253 84 -38 28 -48 32 -40 17 7 -11 33 -35 58 -52 171 -113
417 -105 567 20 38 31 91 121 84 142 -2 6 -9 -4 -17 -22z"/>
<path d="M391 495 c0 -11 8 -44 18 -74 l19 -53 -27 5 c-14 3 -35 9 -46 13 -18
6 -18 5 2 -10 12 -9 43 -19 69 -23 l47 -6 -23 31 c-12 16 -31 54 -41 84 -10
29 -18 44 -18 33z"/>
<path d="M754 468 l-19 -23 23 19 c21 18 27 26 19 26 -2 0 -12 -10 -23 -22z"/>
<path d="M179 191 c-33 -34 -39 -83 -14 -130 16 -32 33 -41 74 -41 59 0 99 87
67 148 -30 59 -81 68 -127 23z m91 -30 c27 -52 -5 -120 -49 -106 -33 10 -44
81 -19 113 16 19 56 14 68 -7z"/>
<path d="M519 191 c-24 -24 -29 -38 -29 -76 0 -62 33 -98 87 -93 87 7 107 150
26 187 -37 17 -52 14 -84 -18z m83 -28 c34 -31 11 -113 -31 -113 -40 0 -63 66
-37 105 19 29 42 32 68 8z"/>
<path d="M0 195 c0 -9 9 -15 25 -15 25 0 25 -1 25 -80 0 -73 2 -80 20 -80 18
0 20 7 20 80 0 79 0 80 25 80 16 0 25 6 25 15 0 12 -14 15 -70 15 -56 0 -70
-3 -70 -15z"/>
<path d="M330 205 c0 -3 10 -25 22 -48 12 -23 24 -62 27 -87 4 -32 11 -46 24
-48 14 -3 17 4 17 35 0 25 11 60 31 96 27 51 29 57 12 57 -11 0 -26 -14 -37
-35 -11 -19 -22 -35 -26 -35 -3 0 -14 16 -23 35 -9 19 -23 35 -32 35 -8 0 -15
-2 -15 -5z"/>
<path d="M670 195 c0 -9 9 -15 25 -15 25 0 25 -1 25 -80 0 -63 3 -80 15 -80
11 0 15 18 17 78 3 71 5 77 26 80 12 2 22 10 22 18 0 11 -15 14 -65 14 -51 0
-65 -3 -65 -15z"/>
<path d="M855 198 c-18 -49 -55 -163 -55 -170 0 -17 32 -7 37 12 4 16 14 20
43 20 29 0 39 -4 43 -20 3 -12 14 -20 25 -20 19 0 19 4 -11 95 -28 84 -34 95
-54 95 -13 0 -26 -6 -28 -12z m44 -90 c1 -12 -6 -18 -19 -18 -23 0 -24 8 -9
47 10 26 12 27 19 8 5 -11 9 -28 9 -37z"/>
</g>
</svg>
