<?xml version="1.0" encoding="UTF-8"?>
<svg xmlns="http://www.w3.org/2000/svg" xmlns:xlink="http://www.w3.org/1999/xlink" width="100px" height="100px" viewBox="0 0 100 100" version="1.1">
<g id="surface1">
<path style=" stroke:none;fill-rule:nonzero;fill:rgb(0%,11.764706%,31.372549%);fill-opacity:1;" d="M 50.058594 95.105469 C 25.285156 95.105469 4.988281 74.710938 4.988281 49.933594 C 4.988281 44.363281 5.984375 39.089844 7.875 34.117188 L 34.238281 87.148438 C 34.539062 87.84375 35.035156 88.441406 35.832031 88.441406 C 36.628906 88.441406 37.125 87.84375 37.421875 87.148438 L 49.5625 59.984375 C 49.660156 59.6875 49.859375 59.386719 50.160156 59.386719 C 50.457031 59.386719 50.558594 59.6875 50.757812 59.984375 L 62.894531 87.148438 C 63.191406 87.84375 63.691406 88.441406 64.488281 88.441406 C 65.28125 88.441406 65.78125 87.84375 66.078125 87.148438 L 92.445312 34.117188 C 94.335938 39.089844 95.332031 44.363281 95.332031 49.933594 C 95.132812 74.710938 74.835938 95.105469 50.058594 95.105469 Z M 50.058594 39.6875 C 49.761719 39.6875 49.660156 39.386719 49.460938 39.089844 L 35.335938 7.25 C 39.910156 5.558594 44.886719 4.664062 50.058594 4.664062 C 55.234375 4.664062 60.207031 5.558594 64.785156 7.25 L 50.65625 39.089844 C 50.457031 39.488281 50.359375 39.6875 50.058594 39.6875 Z M 35.632812 72.421875 C 35.335938 72.421875 35.234375 72.121094 35.035156 71.824219 L 12.152344 25.65625 C 16.230469 19.390625 21.703125 14.117188 28.371094 10.433594 L 44.886719 47.148438 C 45.085938 47.746094 45.582031 47.945312 46.078125 47.945312 L 54.039062 47.945312 C 54.636719 47.945312 55.035156 47.847656 55.332031 47.148438 L 71.847656 10.433594 C 78.414062 14.117188 83.988281 19.390625 88.066406 25.65625 L 64.984375 71.824219 C 64.882812 72.121094 64.683594 72.421875 64.386719 72.421875 C 64.089844 72.421875 63.988281 72.121094 63.789062 71.824219 L 55.132812 52.125 C 54.835938 51.425781 54.4375 51.328125 53.839844 51.328125 L 45.878906 51.328125 C 45.285156 51.328125 44.886719 51.425781 44.585938 52.125 L 36.230469 71.824219 C 36.128906 72.121094 35.929688 72.421875 35.632812 72.421875 Z M 50.058594 99.683594 C 77.621094 99.683594 99.808594 77.496094 99.808594 49.933594 C 99.808594 22.375 77.621094 0.1875 50.058594 0.1875 C 22.5 0.1875 0.3125 22.375 0.3125 49.933594 C 0.3125 77.496094 22.5 99.683594 50.058594 99.683594 Z M 50.058594 99.683594 "/>
</g>
</svg>
