<?xml version="1.0" encoding="UTF-8" standalone="no"?>
<!-- Created with Inkscape (http://www.inkscape.org/) -->

<svg
   width="800"
   height="800"
   viewBox="0 0 211.66666 211.66667"
   version="1.1"
   id="svg5"
   inkscape:version="1.2.1 (0f2f062aeb, 2022-09-21, custom)"
   sodipodi:docname="map_stands.svg"
   xml:space="preserve"
   xmlns:inkscape="http://www.inkscape.org/namespaces/inkscape"
   xmlns:sodipodi="http://sodipodi.sourceforge.net/DTD/sodipodi-0.dtd"
   xmlns="http://www.w3.org/2000/svg"
   xmlns:svg="http://www.w3.org/2000/svg"><sodipodi:namedview
     id="namedview7"
     pagecolor="#ffffff"
     bordercolor="#000000"
     borderopacity="0.25"
     inkscape:showpageshadow="2"
     inkscape:pageopacity="0.0"
     inkscape:pagecheckerboard="0"
     inkscape:deskcolor="#d1d1d1"
     inkscape:document-units="mm"
     showgrid="false"
     inkscape:zoom="1.4142136"
     inkscape:cx="323.8549"
     inkscape:cy="199.05055"
     inkscape:window-width="1846"
     inkscape:window-height="1016"
     inkscape:window-x="0"
     inkscape:window-y="0"
     inkscape:window-maximized="1"
     inkscape:current-layer="layer1" /><defs
     id="defs2" /><g
     inkscape:label="Layer 1"
     inkscape:groupmode="layer"
     id="layer1"><path
       style="fill:#0066ff;stroke:#000000;stroke-width:0.264583;stroke-dasharray:none"
       d="m 39.051691,7.3120771 6.755444,16.6551679 8.203287,-1.978546 1.013123,1.391037 19.102544,-5.41769 -0.437961,-1.289616 7.734628,-2.234951 -8.016204,-14.0913048 z"
       id="path3967"
       sodipodi:nodetypes="ccccccccc" /><path
       style="fill:#ffcc00;stroke:#000000;stroke-width:0.26458333;stroke-dasharray:none"
       d="M 14.49951,53.726417 29.268049,89.742901 45.588696,84.962236 29.522905,49.36966 Z"
       id="path4335"
       sodipodi:nodetypes="ccccc" /><path
       style="fill:#800080;stroke:#000000;stroke-width:0.26458333;stroke-dasharray:none"
       d="m 70.295604,41.100955 11.64807,27.064044 3.886841,-0.559663 1.971133,4.222295 3.930828,-0.94265 8.923464,4.295909 2.54868,-5.366924 -5.364207,-2.760231 -5.336921,-8.875513 -1.46154,-4.044806 19.314758,-5.893508 -8.8072,-15.888733 z"
       id="path4499"
       sodipodi:nodetypes="ccccccccccccc" /><path
       style="fill:#ffcc00;stroke:#000000;stroke-width:0.26458333;stroke-dasharray:none"
       d="m 116.83998,81.968916 29.63805,10.540527 -13.96117,27.610147 9.75002,3.39604 0.4144,-1.13622 6.0492,1.10034 5.90916,2.90339 0.11496,1.83119 19.89259,7.71825 15.3255,-33.87797 -21.56978,-7.534059 -1.19075,2.642359 -49.27332,-17.573314 1.95159,-4.056583 -4.80845,-1.756497 -7.50362,12.35992 5.60565,2.329477 z"
       id="path4555"
       sodipodi:nodetypes="cccccccccccccccccc" /><path
       style="fill:#008000;stroke:#000000;stroke-width:0.26458333;stroke-dasharray:none"
       d="m 68.079135,104.79907 2.802974,1.13277 -4.327116,8.07333 11.31078,3.76589 14.032862,-25.637747 -14.327512,-3.954555 z"
       id="path4665"
       sodipodi:nodetypes="ccccccc" /><path
       style="fill:#008000;stroke:#000000;stroke-width:0.26458333;stroke-dasharray:none"
       d="m 136.84992,191.87448 3.85815,-0.68633 9.52443,4.06719 2.15199,-4.044 -11.06823,-4.34371 -4.44839,1.73139 z"
       id="path4802"
       sodipodi:nodetypes="ccccccc" /><path
       style="fill:#800080;stroke:#000000;stroke-width:0.26458333;stroke-dasharray:none"
       d="m 172.66613,168.48646 3.85815,-0.68633 9.52443,4.06719 2.15199,-4.044 -11.06823,-4.34371 -4.44839,1.73139 z"
       id="path4802-3"
       sodipodi:nodetypes="ccccccc" /><path
       style="fill:#999999;stroke:#000000;stroke-width:0.26458333;stroke-dasharray:none"
       d="m 107.26846,195.46368 13.48104,4.59468 22.22646,-41.23908 -12.93584,-4.0892 z"
       id="path4861"
       sodipodi:nodetypes="ccccc" /><path
       style="fill:#ffcc00;stroke:#000000;stroke-width:0.26458333;stroke-dasharray:none"
       d="m 167.79868,193.23175 20.51968,4.22338 3.31646,-12.63205 -18.77913,-3.80712 z"
       id="path4917"
       sodipodi:nodetypes="ccccc" /><path
       style="fill:#ffcc00;stroke:#000000;stroke-width:0.26458333;stroke-dasharray:none"
       d="m 16.070649,185.23552 20.51968,4.22338 3.31646,-12.63205 -18.77913,-3.80712 z"
       id="path4917-6"
       sodipodi:nodetypes="ccccc" /><path
       style="fill:#0066ff;stroke:#000000;stroke-width:0.26458333;stroke-dasharray:none"
       d="m 31.949344,146.24014 35.73121,7.80612 3.535134,-12.67917 -36.099026,-7.27145 z"
       id="path5032"
       sodipodi:nodetypes="ccccc" /></g></svg>
