<?xml version="1.0" encoding="UTF-8" standalone="no"?>
<!-- Created with Inkscape (http://www.inkscape.org/) -->

<svg
   width="800"
   height="800"
   viewBox="0 0 211.66666 211.66667"
   version="1.1"
   id="svg5"
   inkscape:version="1.2.1 (0f2f062aeb, 2022-09-21, custom)"
   sodipodi:docname="map_background.svg"
   xml:space="preserve"
   xmlns:inkscape="http://www.inkscape.org/namespaces/inkscape"
   xmlns:sodipodi="http://sodipodi.sourceforge.net/DTD/sodipodi-0.dtd"
   xmlns="http://www.w3.org/2000/svg"
   xmlns:svg="http://www.w3.org/2000/svg"><sodipodi:namedview
     id="namedview7"
     pagecolor="#ffffff"
     bordercolor="#000000"
     borderopacity="0.25"
     inkscape:showpageshadow="2"
     inkscape:pageopacity="0.0"
     inkscape:pagecheckerboard="0"
     inkscape:deskcolor="#d1d1d1"
     inkscape:document-units="mm"
     showgrid="false"
     inkscape:zoom="0.35355339"
     inkscape:cx="-135.7645"
     inkscape:cy="683.06515"
     inkscape:window-width="1846"
     inkscape:window-height="1016"
     inkscape:window-x="0"
     inkscape:window-y="0"
     inkscape:window-maximized="1"
     inkscape:current-layer="layer1" /><defs
     id="defs2" /><g
     inkscape:label="Layer 1"
     inkscape:groupmode="layer"
     id="layer1"><path
       style="fill:#ffffff;stroke:#000000;stroke-width:0.264532;stroke-dasharray:none"
       d="M 27.896221,114.57154 8.3680955,55.070018 9.02682,51.9302 9.7902834,50.028475 12.181304,48.929643 30.606079,35.952034 l 6.666312,-8.956829 8.544939,-5.552186 16.325895,-6.677394 18.093617,-4.491339 10.875884,-2.0177779 2.083479,0.4035557 1.666581,1.9660812 10.002554,21.647464 16.21242,28.273161 5.81298,2.663469 9.17184,2.804845 1.83961,1.380527 -0.2716,1.608419 -26.96279,51.63666 -2.09221,-0.81028 -2.78917,-0.21627 -2.074,0.16511 -2.62128,0.59847 -3.920509,1.55119 -2.559937,1.20012 -2.199003,2.03625 -3.298244,4.02922 z"
       id="path262" /><path
       style="fill:#ffffff;stroke:#000000;stroke-width:0.264532;stroke-dasharray:none"
       d="m 140.7327,77.299609 -1.49715,0.566032 -22.36739,44.728639 7.31085,2.89759 1.89783,1.0687 1.51953,1.38255 1.39828,2.92297 0.73135,2.61202 0.0197,2.88864 -0.64643,3.32508 20.16489,4.85796 15.93546,0.21131 17.02289,2.55343 0.80835,-0.20835 0.52786,-0.79678 8.66723,-21.92043 9.71124,-24.57568 -0.52154,-1.436897 -3.214,-1.404291 -55.09871,-19.605418 z"
       id="path480"
       sodipodi:nodetypes="ccccccccccccccccccccc" /><path
       style="fill:#ffffff;stroke:#000000;stroke-width:0.264532;stroke-dasharray:none"
       d="m 22.410929,125.84418 -10.105036,19.75042 0.923592,48.21003 3.148339,9.56711 8.408154,-0.60578 10.770864,-5.1894 16.004584,-8.15894 20.690895,-31.48311 10.22475,-17.82365 z"
       id="path482"
       sodipodi:nodetypes="cccccccccc" /><path
       style="fill:#ffffff;stroke:#000000;stroke-width:0.264532;stroke-dasharray:none"
       d="m 123.86104,151.08463 23.66788,6.04173 17.19461,0.25742 27.50522,4.20224 8.62655,21.0904 4.00165,21.28878 -88.60487,1.56357 -15.37583,-7.23684 6.14036,-13.13899 z"
       id="path531"
       sodipodi:nodetypes="cccccccccc" /><path
       style="fill:#f2f2f2;stroke:#000000;stroke-width:0.264532;stroke-dasharray:none;stroke-opacity:1"
       d="M 137.90242,67.392852 136.06204,66.011939 126.87012,63.206611 121.0776,60.541792 104.80111,32.168304 98.841099,19.161327 94.9005,10.651348 93.210806,8.6616802 91.136858,8.2451009 79.877444,10.35724 62.040796,14.736214 45.795747,21.418538 37.180746,27.03298 30.64464,35.926608 12.20505,48.897467 9.8045309,50.047598 8.9057799,52.16943 8.3286901,55.124486 27.87145,114.54444 89.115479,129.19725 82.47586,140.10988 22.413709,125.84463 11.923374,146.34753 1.4552566,158.63312 1.4580866,144.90927 5.8306403,139.44458 15.407012,118.82236 8.9224621,97.817513 1.4586759,96.769471 1.4675059,92.127768 7.5153263,92.808898 3.486097,79.30631 1.458134,79.24332 1.473629,74.619658 2.2257801,74.640628 1.494279,71.812025 1.525197,45.440897 l 13.137369,-9.218964 5.545659,-4.512271 1.57896,-1.222596 3.117906,-3.874659 5.105616,-5.598879 L 1.5125384,6.752591 1.5160958,1.5400381 34.153441,18.400657 40.304504,14.768669 53.778822,9.69569 75.896386,3.6606256 84.640907,2.1600987 94.799804,1.9488906 l 3.243807,0.5121865 1.588259,3.1296793 14.94373,29.2899416 6.37546,11.30843 5.65116,7.58329 16.99889,4.71809 z"
       id="path1477"
       sodipodi:nodetypes="ccccccccccccccccccccccccccccccccccccccccccccccccccccccccc" /><path
       style="fill:#f2f2f2;stroke:#000000;stroke-width:0.264532;stroke-dasharray:none;stroke-opacity:1"
       d="m 110.66985,120.64141 26.96116,-51.634889 0.27134,-1.611492 8.32947,-13.032841 6.37268,2.410179 -6.7087,11.909349 64.24135,21.45592 -0.0415,15.610304 -14.66137,42.94125 14.75249,33.193 0.0246,28.32878 -4.55014,-0.0175 -0.80082,-6.22784 -4.00409,-21.28943 -8.62678,-21.08893 -27.49864,-4.19905 -17.19874,-0.25873 -23.66864,-6.04487 5.23381,-11.39167 20.19004,4.86458 15.88456,0.20632 17.04521,2.55237 0.51876,-0.13368 0.29492,-0.0751 0.52872,-0.80928 18.37821,-46.484483 -0.52086,-1.437265 -0.80664,-0.352482 -2.39484,-1.047557 -55.11075,-19.608775 -2.37112,-0.06966 -1.49982,0.568927 -22.36626,44.727485 z"
       id="path4660"
       sodipodi:nodetypes="cccccccccccccccccccccccccccccccccc" /><path
       style="fill:#f2f2f2;stroke:#000000;stroke-width:0.264532;stroke-dasharray:none;stroke-opacity:1"
       d="m 64.255927,210.17644 34.299141,-66.34152 -16.07943,-3.72364 6.639825,-10.91374 15.212667,4.06996 6.34238,-12.62428 6.19553,1.95173 -6.14801,12.34602 18.37901,4.75243 -5.23516,11.39107 -18.05001,-5.25805 -33.137848,64.35482 z"
       id="path4662"
       sodipodi:nodetypes="ccccccccccccc" /><rect
       style="fill:#f2f2f2;stroke:#000000;stroke-width:0;stroke-dasharray:none;stroke-opacity:1"
       id="rect5196"
       width="3.0024784"
       height="12.089622"
       x="159.10939"
       y="101.93376"
       transform="matrix(0.96636393,0.25717844,-0.26500933,0.96424585,0,0)" /><rect
       style="fill:#f2f2f2;stroke:#000000;stroke-width:0;stroke-dasharray:none;stroke-opacity:1"
       id="rect5302"
       width="8.0685358"
       height="12.00861"
       x="-98.918724"
       y="-119.56502"
       ry="0.38521633"
       transform="matrix(-0.97438729,-0.22487642,0.05612705,-0.99842363,0,0)"
       rx="0" /><rect
       style="fill:#f2f2f2;stroke:#000000;stroke-width:0;stroke-dasharray:none;stroke-opacity:1"
       id="rect5408"
       width="6.2762494"
       height="4.2367334"
       x="157.24854"
       y="85.383049"
       ry="0.48790666"
       transform="matrix(0.96210214,0.27268934,-0.46166994,0.88705178,0,0)"
       inkscape:transform-center-x="0.75417279"
       inkscape:transform-center-y="-0.36348464" /><rect
       style="fill:#f2f2f2;stroke:#000000;stroke-width:0;stroke-dasharray:none;stroke-opacity:1"
       id="rect5410"
       width="9.6143799"
       height="6.2627997"
       x="17.702168"
       y="-152.77711"
       ry="0.23985197"
       transform="matrix(-0.13954478,0.99021576,-0.96261295,-0.2708806,0,0)" /><rect
       style="fill:#f2f2f2;stroke:#000000;stroke-width:0;stroke-dasharray:none;stroke-opacity:1"
       id="rect5412"
       width="2.3340755"
       height="2.226794"
       x="59.834236"
       y="142.10799"
       ry="0.2430588"
       transform="matrix(0.73604015,-0.67693789,0.65688037,0.75399482,0,0)" /><ellipse
       style="fill:#f9f9f9;stroke:#000000;stroke-width:0.529062;stroke-dasharray:none;stroke-opacity:1"
       id="path5466"
       cx="104.26703"
       cy="139.54521"
       rx="4.0351739"
       ry="4.1551418" /><path
       style="fill:#cccccc;stroke:#000000;stroke-width:0.0529168;stroke-dasharray:none;stroke-opacity:1"
       d="m 38.87072,6.9498017 6.76148,16.3420773 8.11578,-2.309558 1.01931,1.404698 -0.0354,4.661875 -0.809,-1.56244 -8.48501,2.325705 -6.71018,-16.43755 z"
       id="path6246" /><path
       style="fill:#cccccc;stroke:#000000;stroke-width:0.0529168;stroke-dasharray:none;stroke-opacity:1"
       d="m 38.71605,11.405648 -0.0489,5.710361 6.80384,16.198411 8.2982,-2.299347 0.90615,1.547974 0.0576,-5.479785 -0.81084,-1.595849 -8.42073,2.316295 z"
       id="path6248"
       sodipodi:nodetypes="ccccccccc" /><path
       style="fill:#cccccc;stroke:#000000;stroke-width:0.0529168;stroke-dasharray:none;stroke-opacity:1"
       d="m 38.66391,17.114879 -0.0509,5.034557 6.93601,16.312749 8.29898,-2.430347 0.79289,1.649375 0.0345,-5.074586 -0.91007,-1.599494 -8.29818,2.289947 z"
       id="path6304"
       sodipodi:nodetypes="ccccccccc" /><path
       style="fill:#e6e6e6;stroke:#000000;stroke-width:0.0529168;stroke-dasharray:none;stroke-opacity:1"
       d="m 54.73435,22.383273 -0.0225,4.657805 19.21917,-5.35518 v -1.803771 l 7.19491,-1.995491 0.017,-4.452196 -7.69875,2.230103 0.44648,1.282614 z"
       id="path6306" /><path
       style="fill:#e6e6e6;stroke:#000000;stroke-width:0.0529168;stroke-dasharray:none;stroke-opacity:1"
       d="m 73.9157,19.899019 -0.0228,1.79027 -19.1726,5.28726 0.0101,5.419578 19.25309,-5.674862 0.0661,-1.374856 7.16933,-2.111505 -0.13229,-5.301502 z"
       id="path6308"
       sodipodi:nodetypes="ccccccccc" /><path
       style="fill:#e6e6e6;stroke:#000000;stroke-width:0.0529168;stroke-dasharray:none;stroke-opacity:1"
       d="m 54.67802,32.478297 -0.0123,5.250206 19.26998,-5.528397 0.0184,-1.551525 7.27837,-1.997506 -0.009,-5.402749 -7.18117,2.127957 -0.0979,1.325154 z"
       id="path6310" /><path
       style="fill:#cccccc;stroke:#000000;stroke-width:0.0529168;stroke-dasharray:none;stroke-opacity:1"
       d="m 14.466693,53.758717 0.008,4.257633 14.52522,36.130721 0.25114,-4.372613 z"
       id="path7155" /><path
       style="fill:#e6e6e6;stroke:#000000;stroke-width:0.0529168;stroke-dasharray:none;stroke-opacity:1"
       d="m 45.583653,85.007293 -16.32784,4.747274 -0.26714,4.373554 16.48801,-4.739165 z"
       id="path7157"
       sodipodi:nodetypes="ccccc" /><path
       style="fill:#cccccc;stroke:#000000;stroke-width:0.0529168;stroke-dasharray:none;stroke-opacity:1"
       d="m 114.16206,89.428504 2.67697,-5.018885 28.75392,9.81122 0.86017,-1.658955 -29.60312,-10.564332 -3.63033,6.452749 z"
       id="path7885" /><path
       style="fill:#e6e6e6;stroke:#000000;stroke-width:0.0529168;stroke-dasharray:none;stroke-opacity:1"
       d="m 117.98038,79.579464 1.95329,-4.050922 1.2972,0.576432 -2.16669,3.923392 z"
       id="path7943" /><path
       style="fill:#cccccc;stroke:#000000;stroke-width:0.0529168;stroke-dasharray:none;stroke-opacity:1"
       d="m 132.52416,120.14608 -0.0786,4.37994 42.09413,15.68296 0.20325,-4.20841 -20.01556,-7.78466 -0.11035,-1.81426 -5.90499,-2.89038 -6.01716,-1.1134 -0.45343,1.14172 z"
       id="path7945"
       sodipodi:nodetypes="cccccccccc" /><path
       style="fill:#e6e6e6;stroke:#000000;stroke-width:0.0529168;stroke-dasharray:none;stroke-opacity:1"
       d="m 174.67583,135.95773 -0.14315,4.27045 15.47692,-33.80764 -0.0163,-4.32119 z"
       id="path7947"
       sodipodi:nodetypes="ccccc" /><path
       style="fill:#cccccc;stroke:#000000;stroke-width:0.0529168;stroke-dasharray:none;stroke-opacity:1"
       d="m 107.29856,195.50944 0.10697,2.07224 13.34699,4.69119 -0.002,-2.19417 z"
       id="path7949" /><path
       style="fill:#e6e6e6;stroke:#000000;stroke-width:0.0529168;stroke-dasharray:none;stroke-opacity:1"
       d="m 142.98195,158.85945 -22.24358,41.24767 0.004,2.14302 22.5947,-41.67363 z"
       id="path7951" /><path
       style="fill:#cccccc;stroke:#000000;stroke-width:0.0529168;stroke-dasharray:none;stroke-opacity:1"
       d="m 31.976127,146.27361 -0.0307,2.97114 35.80453,7.61094 -0.0339,-2.7864 z"
       id="path7953" /><path
       style="fill:#e6e6e6;stroke:#000000;stroke-width:0.0529168;stroke-dasharray:none;stroke-opacity:1"
       d="m 71.241167,141.38139 -3.54002,12.70656 0.0376,2.78654 3.61561,-12.37726 z"
       id="path7955"
       sodipodi:nodetypes="ccccc" /><path
       style="fill:#cccccc;stroke:#000000;stroke-width:0.0529168;stroke-dasharray:none;stroke-opacity:1"
       d="m 16.147336,185.25993 -0.011,2.67659 20.54862,4.59172 -0.0398,-3.03587 z"
       id="path7957" /><path
       style="fill:#e6e6e6;stroke:#000000;stroke-width:0.0529168;stroke-dasharray:none;stroke-opacity:1"
       d="m 39.914366,176.89349 -3.27334,12.61447 0.0529,3.06464 3.46945,-12.47282 z"
       id="path7959" /><path
       style="fill:#cccccc;stroke:#000000;stroke-width:0.0529168;stroke-dasharray:none;stroke-opacity:1"
       d="m 167.88021,193.2622 -0.011,2.67659 20.54862,4.59171 -0.0398,-3.03587 z"
       id="path7957-3" /><path
       style="fill:#e6e6e6;stroke:#000000;stroke-width:0.0529168;stroke-dasharray:none;stroke-opacity:1"
       d="m 191.64724,184.89575 -3.27334,12.61447 0.0529,3.06464 3.46945,-12.47282 z"
       id="path7959-6" /><path
       style="fill:#cccccc;stroke:#000000;stroke-width:0.0529168;stroke-dasharray:none;stroke-opacity:1"
       d="m 68.117338,104.81604 -0.68792,1.95289 2.39569,0.95309 1.03682,-1.74565 z"
       id="path7961"
       sodipodi:nodetypes="ccccc" /><path
       style="fill:#cccccc;stroke:#000000;stroke-width:0.0529168;stroke-dasharray:none;stroke-opacity:1"
       d="m 66.560818,114.0148 -0.20993,2.12814 11.55967,4.0025 -0.0515,-2.31613 z"
       id="path7963" /><path
       style="fill:#e6e6e6;stroke:#000000;stroke-width:0.0529168;stroke-dasharray:none;stroke-opacity:1"
       d="m 91.895978,92.168853 -14.04252,25.696907 0.0762,2.28332 14.10632,-25.74137 z"
       id="path7965" /><path
       style="fill:#cccccc;stroke:#000000;stroke-width:0.0529168;stroke-dasharray:none;stroke-opacity:1"
       d="m 70.266613,41.09351 -0.10438,3.898492 11.53108,27.659375 0.27156,-4.414473 z"
       id="path7967" /><path
       style="fill:#cccccc;stroke:#000000;stroke-width:0.0529168;stroke-dasharray:none;stroke-opacity:1"
       d="m 85.821993,67.656512 -0.24313,4.525384 2.02158,3.826651 0.17854,-4.192782 z"
       id="path7969"
       sodipodi:nodetypes="ccccc" /><path
       style="fill:#e6e6e6;stroke:#000000;stroke-width:0.0529168;stroke-dasharray:none;stroke-opacity:1"
       d="m 81.946133,68.210803 3.86488,-0.553711 -0.18978,4.544434 -3.87521,0.481111 z"
       id="path7971" /><path
       style="fill:#e6e6e6;stroke:#000000;stroke-width:0.0529168;stroke-dasharray:none;stroke-opacity:1"
       d="m 87.798493,71.868345 -0.19805,4.216943 3.72626,-0.930823 7.53894,3.082119 1.752087,-3.056929 -8.908107,-4.273393 z"
       id="path7973" /><path
       style="fill:#e6e6e6;stroke:#000000;stroke-width:0.0529168;stroke-dasharray:none;stroke-opacity:1"
       d="m 91.077163,54.14823 1.44245,3.995553 17.788947,-5.203596 0.0124,-4.669195 z"
       id="path7975" /><path
       style="fill:#e6e6e6;stroke:#000000;stroke-width:0.0529168;stroke-dasharray:none;stroke-opacity:1"
       d="m 172.70812,168.50955 0.20489,3.47977 3.41556,-0.27208 7.82846,3.36066 1.84705,-3.19155 -9.48521,-4.04085 z"
       id="path7977" /><path
       style="fill:#e6e6e6;stroke:#000000;stroke-width:0.0529168;stroke-dasharray:none;stroke-opacity:1"
       d="m 136.89377,191.88825 0.20489,3.47977 3.41556,-0.27208 7.82846,3.36066 1.84705,-3.19155 -9.48521,-4.04085 z"
       id="path7977-7" /><path
       style="fill:#e6e6e6;stroke:#000000;stroke-width:0.0548915;stroke-dasharray:none;stroke-opacity:1"
       d="m 131.6514,122.52105 v 5.29169 h 5.29166 v -5.29169 z"
       id="path8813"
       sodipodi:nodetypes="ccccc" /><path
       style="fill:#ff0000;stroke:#000000;stroke-width:0;stroke-dasharray:none;stroke-opacity:1"
       d="m 133.72249,124.46897 -0.003,-1.46245 1.34746,0.018 -0.001,1.43642 1.28617,0.0321 0.0121,1.39272 -1.26667,10e-4 0.007,1.39425 -1.38769,-0.0108 -0.0108,-1.41073 -1.39816,-0.0359 -0.004,-1.33125 z"
       id="path8879"
       sodipodi:nodetypes="ccccccccccccc" /><path
       style="fill:#e6e6e6;stroke:#000000;stroke-width:0.0548915;stroke-dasharray:none;stroke-opacity:1"
       d="m 78.543017,117.32651 v 5.29169 h 5.29166 v -5.29169 z"
       id="path8813-5"
       sodipodi:nodetypes="ccccc" /><path
       style="fill:#ff0000;stroke:#000000;stroke-width:0;stroke-dasharray:none;stroke-opacity:1"
       d="m 80.614107,119.27443 -0.003,-1.46244 1.34746,0.018 -0.001,1.43641 1.28617,0.0321 0.0121,1.39273 -1.26667,10e-4 0.007,1.39424 -1.38769,-0.0108 -0.0108,-1.41072 -1.39816,-0.0359 -0.004,-1.33125 z"
       id="path8879-3"
       sodipodi:nodetypes="ccccccccccccc" /><path
       style="fill:#e6e6e6;stroke:#000000;stroke-width:0.0548915;stroke-dasharray:none;stroke-opacity:1"
       d="m 16.703436,187.93638 v 5.29169 h 5.29166 v -5.29169 z"
       id="path8813-5-5"
       sodipodi:nodetypes="ccccc" /><path
       style="fill:#ff0000;stroke:#000000;stroke-width:0;stroke-dasharray:none;stroke-opacity:1"
       d="m 18.774526,189.8843 -0.003,-1.46245 1.34746,0.018 -0.001,1.43642 1.28617,0.0321 0.0121,1.39272 -1.26667,0.001 0.007,1.39425 -1.38769,-0.0108 -0.0108,-1.41073 -1.39816,-0.0359 -0.004,-1.33125 z"
       id="path8879-3-6"
       sodipodi:nodetypes="ccccccccccccc" /><path
       style="fill:#000080;stroke:#000000;stroke-width:0.0548915;stroke-dasharray:none;stroke-opacity:1"
       d="m 73.007996,158.71863 v 5.29169 h 5.29166 v -5.29169 z"
       id="path8813-5-5-2"
       sodipodi:nodetypes="ccccc" /><rect
       style="fill:#ffffff;stroke:#000000;stroke-width:0;stroke-dasharray:none;stroke-opacity:1"
       id="rect9032"
       width="0.9762826"
       height="4.1634569"
       x="74.470245"
       y="159.30859"
       ry="0.35954493" /><path
       style="fill:#ffffff;fill-opacity:1;stroke:#ffffff;stroke-width:0;stroke-dasharray:none;stroke-opacity:1"
       d="m 74.777928,159.31166 c 0,0 1.298257,-0.1271 1.752867,0.0115 0.207188,0.0632 0.358509,0.14111 0.541082,0.35982 0.186496,0.22342 0.197314,0.52712 0.214297,0.7782 0.01856,0.27446 -0.133415,0.90857 -0.401647,1.13594 -0.223822,0.18973 -0.287354,0.22592 -0.471862,0.26397 -0.360276,0.0743 -1.112133,0.0675 -1.112133,0.0675 l -0.01048,-0.80725 c 0,0 0.726598,0.18558 1.009099,0.003 0.183856,-0.11883 0.267278,-0.31192 0.267957,-0.59959 6.45e-4,-0.27315 -0.06127,-0.43752 -0.224871,-0.54815 -0.324437,-0.2194 -1.174917,-0.009 -1.174917,-0.009 z"
       id="path9508"
       sodipodi:nodetypes="csssssccssscc" /><path
       style="fill:#000080;stroke:#000000;stroke-width:0.0548915;stroke-dasharray:none;stroke-opacity:1"
       d="m 66.280195,169.26356 v 5.29169 h 5.29166 v -5.29169 z"
       id="path8813-5-5-2-0"
       sodipodi:nodetypes="ccccc" /><rect
       style="fill:#ffffff;stroke:#000000;stroke-width:0;stroke-dasharray:none;stroke-opacity:1"
       id="rect9032-9"
       width="0.9762826"
       height="4.1634569"
       x="67.742439"
       y="169.85353"
       ry="0.35954493" /><path
       style="fill:#ffffff;fill-opacity:1;stroke:#ffffff;stroke-width:0;stroke-dasharray:none;stroke-opacity:1"
       d="m 68.050127,169.8566 c 0,0 1.298257,-0.1271 1.752867,0.0115 0.207188,0.0632 0.358509,0.14111 0.541082,0.35982 0.186496,0.22341 0.197314,0.52711 0.214297,0.77819 0.01856,0.27446 -0.133415,0.90857 -0.401647,1.13594 -0.223822,0.18973 -0.287354,0.22592 -0.471862,0.26397 -0.360276,0.0743 -1.112133,0.0675 -1.112133,0.0675 l -0.01048,-0.80725 c 0,0 0.726598,0.18558 1.009099,0.003 0.183856,-0.11883 0.267278,-0.31192 0.267957,-0.59959 6.45e-4,-0.27315 -0.06127,-0.43752 -0.224871,-0.54815 -0.324437,-0.21939 -1.174917,-0.009 -1.174917,-0.009 z"
       id="path9508-3"
       sodipodi:nodetypes="csssssccssscc" /><path
       style="fill:#000080;stroke:#000000;stroke-width:0.0548915;stroke-dasharray:none;stroke-opacity:1"
       d="m 58.662501,180.81445 v 5.29169 h 5.29166 v -5.29169 z"
       id="path8813-5-5-2-0-6"
       sodipodi:nodetypes="ccccc" /><rect
       style="fill:#ffffff;stroke:#000000;stroke-width:0;stroke-dasharray:none;stroke-opacity:1"
       id="rect9032-9-0"
       width="0.9762826"
       height="4.1634569"
       x="60.124744"
       y="181.4044"
       ry="0.35954493" /><path
       style="fill:#ffffff;fill-opacity:1;stroke:#ffffff;stroke-width:0;stroke-dasharray:none;stroke-opacity:1"
       d="m 60.432433,181.40748 c 0,0 1.298257,-0.1271 1.752867,0.0115 0.207188,0.0632 0.358509,0.14111 0.541082,0.35982 0.186496,0.22341 0.197314,0.52711 0.214297,0.77819 0.01856,0.27447 -0.133415,0.90858 -0.401647,1.13595 -0.223822,0.18973 -0.287354,0.22592 -0.471862,0.26397 -0.360276,0.0743 -1.112133,0.0675 -1.112133,0.0675 l -0.01048,-0.80725 c 0,0 0.726598,0.18558 1.009099,0.003 0.183856,-0.11883 0.267278,-0.31192 0.267957,-0.5996 6.45e-4,-0.27315 -0.06127,-0.43752 -0.224871,-0.54815 -0.324437,-0.21939 -1.174917,-0.009 -1.174917,-0.009 z"
       id="path9508-3-6"
       sodipodi:nodetypes="csssssccssscc" /><path
       style="fill:#44aa00;stroke:#000000;stroke-width:0.0548915;stroke-dasharray:none;stroke-opacity:1"
       d="m 36.375313,163.14079 v 5.29168 h 5.29166 v -5.29168 z"
       id="path8813-5-5-2-0-6-1"
       sodipodi:nodetypes="ccccc" /><path
       style="fill:#000080;stroke:#000000;stroke-width:0.0548915;stroke-dasharray:none;stroke-opacity:1"
       d="m 94.170363,190.12477 v 5.29168 h 5.29166 v -5.29168 z"
       id="path8813-5-5-2-0-6-2"
       sodipodi:nodetypes="ccccc" /><rect
       style="fill:#ffffff;stroke:#000000;stroke-width:0;stroke-dasharray:none;stroke-opacity:1"
       id="rect9032-9-0-6"
       width="0.9762826"
       height="4.1634569"
       x="95.632607"
       y="190.71472"
       ry="0.35954493" /><path
       style="fill:#ffffff;fill-opacity:1;stroke:#ffffff;stroke-width:0;stroke-dasharray:none;stroke-opacity:1"
       d="m 95.940295,190.7178 c 0,0 1.298257,-0.1271 1.752867,0.0115 0.207188,0.0632 0.358509,0.14111 0.541082,0.35982 0.186496,0.22341 0.197314,0.52711 0.214297,0.77819 0.01856,0.27446 -0.133415,0.90858 -0.401647,1.13595 -0.223822,0.18973 -0.287354,0.22592 -0.471862,0.26397 -0.360276,0.0743 -1.112133,0.0675 -1.112133,0.0675 l -0.01048,-0.80725 c 0,0 0.726598,0.18558 1.009099,0.003 0.183856,-0.11884 0.267278,-0.31193 0.267957,-0.5996 6.45e-4,-0.27315 -0.06127,-0.43752 -0.224871,-0.54815 -0.324437,-0.21939 -1.174917,-0.009 -1.174917,-0.009 z"
       id="path9508-3-6-1"
       sodipodi:nodetypes="csssssccssscc" /><path
       style="fill:#000080;stroke:#000000;stroke-width:0.0548915;stroke-dasharray:none;stroke-opacity:1"
       d="m 181.2024,91.198412 v 5.291686 h 5.29166 v -5.291686 z"
       id="path8813-5-5-2-0-6-2-7"
       sodipodi:nodetypes="ccccc" /><rect
       style="fill:#ffffff;stroke:#000000;stroke-width:0;stroke-dasharray:none;stroke-opacity:1"
       id="rect9032-9-0-6-3"
       width="0.9762826"
       height="4.1634569"
       x="182.66464"
       y="91.788353"
       ry="0.35954493" /><path
       style="fill:#ffffff;fill-opacity:1;stroke:#ffffff;stroke-width:0;stroke-dasharray:none;stroke-opacity:1"
       d="m 182.97234,91.791444 c 0,0 1.29825,-0.127101 1.75286,0.0115 0.20719,0.0632 0.35851,0.14111 0.54109,0.359821 0.18649,0.223411 0.19731,0.527111 0.21429,0.778192 0.0186,0.274461 -0.13341,0.908573 -0.40164,1.135944 -0.22383,0.18973 -0.28736,0.22592 -0.47187,0.26397 -0.36027,0.0743 -1.11213,0.0675 -1.11213,0.0675 l -0.0105,-0.807253 c 0,0 0.7266,0.185581 1.0091,0.003 0.18386,-0.11883 0.26728,-0.311921 0.26796,-0.599592 6.4e-4,-0.27315 -0.0613,-0.437521 -0.22487,-0.548151 -0.32444,-0.219391 -1.17492,-0.009 -1.17492,-0.009 z"
       id="path9508-3-6-1-6"
       sodipodi:nodetypes="csssssccssscc" /><path
       style="fill:#000080;stroke:#000000;stroke-width:0.0548915;stroke-dasharray:none;stroke-opacity:1"
       d="m 87.175727,15.554431 v 5.291686 h 5.29166 v -5.291686 z"
       id="path8813-5-5-2-0-6-2-2"
       sodipodi:nodetypes="ccccc" /><rect
       style="fill:#ffffff;stroke:#000000;stroke-width:0;stroke-dasharray:none;stroke-opacity:1"
       id="rect9032-9-0-6-8"
       width="0.9762826"
       height="4.1634569"
       x="88.637978"
       y="16.144388"
       ry="0.35954493" /><path
       style="fill:#ffffff;fill-opacity:1;stroke:#ffffff;stroke-width:0;stroke-dasharray:none;stroke-opacity:1"
       d="m 88.945667,16.147463 c 0,0 1.29825,-0.1271 1.75286,0.0115 0.20719,0.0632 0.35851,0.141111 0.54109,0.359821 0.18649,0.223411 0.19731,0.527112 0.21429,0.778193 0.0186,0.27446 -0.13341,0.908572 -0.40164,1.135943 -0.22383,0.189731 -0.28736,0.225921 -0.47187,0.263971 -0.36027,0.0743 -1.11213,0.0675 -1.11213,0.0675 l -0.0105,-0.807252 c 0,0 0.7266,0.18558 1.0091,0.003 0.18386,-0.118831 0.26728,-0.311921 0.26796,-0.599592 6.4e-4,-0.273151 -0.0613,-0.437522 -0.22487,-0.548152 -0.32444,-0.219391 -1.17492,-0.009 -1.17492,-0.009 z"
       id="path9508-3-6-1-9"
       sodipodi:nodetypes="csssssccssscc" /><path
       style="fill:#000080;stroke:#000000;stroke-width:0.0548915;stroke-dasharray:none;stroke-opacity:1"
       d="m 105.7399,168.84628 v 5.29169 h 5.29166 v -5.29169 z"
       id="path8813-5-5-2-0-6-8"
       sodipodi:nodetypes="ccccc" /><rect
       style="fill:#ffffff;stroke:#000000;stroke-width:0;stroke-dasharray:none;stroke-opacity:1"
       id="rect9032-9-0-7"
       width="0.9762826"
       height="4.1634569"
       x="107.20213"
       y="169.43625"
       ry="0.35954493" /><path
       style="fill:#ffffff;fill-opacity:1;stroke:#ffffff;stroke-width:0;stroke-dasharray:none;stroke-opacity:1"
       d="m 107.50984,169.43931 c 0,0 1.29825,-0.1271 1.75286,0.0115 0.20719,0.0632 0.35851,0.14111 0.54109,0.35984 0.18649,0.22341 0.19731,0.5271 0.21429,0.77818 0.0186,0.27447 -0.13341,0.90857 -0.40164,1.13595 -0.22383,0.18972 -0.28736,0.22592 -0.47187,0.26397 -0.36027,0.0743 -1.11213,0.0675 -1.11213,0.0675 l -0.0105,-0.80725 c 0,0 0.7266,0.18558 1.0091,0.003 0.18386,-0.11883 0.26728,-0.31192 0.26796,-0.59959 6.4e-4,-0.27315 -0.0613,-0.43752 -0.22487,-0.54815 -0.32444,-0.21939 -1.17492,-0.009 -1.17492,-0.009 z"
       id="path9508-3-6-9"
       sodipodi:nodetypes="csssssccssscc" /><path
       style="fill:#000080;stroke:#000000;stroke-width:0.0548915;stroke-dasharray:none;stroke-opacity:1"
       d="m 111.94233,156.31058 v 5.29169 h 5.29166 v -5.29169 z"
       id="path8813-5-5-2-0-6-20"
       sodipodi:nodetypes="ccccc" /><rect
       style="fill:#ffffff;stroke:#000000;stroke-width:0;stroke-dasharray:none;stroke-opacity:1"
       id="rect9032-9-0-2"
       width="0.9762826"
       height="4.1634569"
       x="113.40457"
       y="156.90054"
       ry="0.35954493" /><path
       style="fill:#ffffff;fill-opacity:1;stroke:#ffffff;stroke-width:0;stroke-dasharray:none;stroke-opacity:1"
       d="m 113.71226,156.90362 c 0,0 1.29825,-0.1271 1.75286,0.0115 0.20719,0.0632 0.35851,0.14111 0.54109,0.35982 0.18649,0.22341 0.19731,0.52711 0.21429,0.77819 0.0186,0.27446 -0.13341,0.90857 -0.40164,1.13594 -0.22383,0.18973 -0.28736,0.22592 -0.47187,0.26397 -0.36027,0.0743 -1.11213,0.0675 -1.11213,0.0675 l -0.0105,-0.80725 c 0,0 0.7266,0.18558 1.0091,0.003 0.18386,-0.11883 0.26728,-0.31192 0.26796,-0.59959 6.4e-4,-0.27315 -0.0613,-0.43752 -0.22487,-0.54815 -0.32444,-0.21939 -1.17492,-0.009 -1.17492,-0.009 z"
       id="path9508-3-6-3"
       sodipodi:nodetypes="csssssccssscc" /><path
       style="fill:#000080;stroke:#000000;stroke-width:0.0548915;stroke-dasharray:none;stroke-opacity:1"
       d="m 99.715784,179.66459 v 5.29168 h 5.291656 v -5.29168 z"
       id="path8813-5-5-2-0-6-7"
       sodipodi:nodetypes="ccccc" /><rect
       style="fill:#ffffff;stroke:#000000;stroke-width:0;stroke-dasharray:none;stroke-opacity:1"
       id="rect9032-9-0-5"
       width="0.9762826"
       height="4.1634569"
       x="101.17803"
       y="180.25453"
       ry="0.35954493" /><path
       style="fill:#ffffff;fill-opacity:1;stroke:#ffffff;stroke-width:0;stroke-dasharray:none;stroke-opacity:1"
       d="m 101.48572,180.25762 c 0,0 1.29825,-0.1271 1.75286,0.0115 0.20719,0.0632 0.35851,0.14111 0.54109,0.35982 0.18649,0.22341 0.19731,0.52711 0.21429,0.77819 0.0186,0.27446 -0.13341,0.90857 -0.40164,1.13594 -0.22383,0.18974 -0.28736,0.22593 -0.47187,0.26398 -0.36027,0.0743 -1.11213,0.0675 -1.11213,0.0675 l -0.0105,-0.80726 c 0,0 0.7266,0.18558 1.0091,0.003 0.18386,-0.11883 0.26728,-0.31192 0.26796,-0.59959 6.4e-4,-0.27315 -0.0613,-0.43752 -0.22487,-0.54815 -0.32444,-0.21939 -1.17492,-0.009 -1.17492,-0.009 z"
       id="path9508-3-6-92"
       sodipodi:nodetypes="csssssccssscc" /><path
       style="fill:#000080;stroke:#000000;stroke-width:0.0548915;stroke-dasharray:none;stroke-opacity:1"
       d="m 80.031601,147.04607 v 5.29168 h 5.29166 v -5.29168 z"
       id="path8813-5-5-2-1"
       sodipodi:nodetypes="ccccc" /><rect
       style="fill:#ffffff;stroke:#000000;stroke-width:0;stroke-dasharray:none;stroke-opacity:1"
       id="rect9032-2"
       width="0.9762826"
       height="4.1634569"
       x="81.493851"
       y="147.63602"
       ry="0.35954493" /><path
       style="fill:#ffffff;fill-opacity:1;stroke:#ffffff;stroke-width:0;stroke-dasharray:none;stroke-opacity:1"
       d="m 81.801533,147.6391 c 0,0 1.298257,-0.1271 1.752867,0.0115 0.207188,0.0632 0.358509,0.14111 0.541082,0.35982 0.186496,0.22341 0.197314,0.52711 0.214297,0.77819 0.01856,0.27446 -0.133415,0.90857 -0.401647,1.13594 -0.223822,0.18974 -0.287354,0.22593 -0.471862,0.26398 -0.360276,0.0743 -1.112133,0.0675 -1.112133,0.0675 l -0.01048,-0.80726 c 0,0 0.726598,0.18558 1.009099,0.003 0.183856,-0.11883 0.267278,-0.31192 0.267957,-0.59959 6.45e-4,-0.27315 -0.06127,-0.43752 -0.224871,-0.54815 -0.324437,-0.21939 -1.174917,-0.009 -1.174917,-0.009 z"
       id="path9508-7"
       sodipodi:nodetypes="csssssccssscc" /><path
       style="fill:#ffff00;fill-opacity:1;stroke:#ffffff;stroke-width:0;stroke-dasharray:none;stroke-opacity:1"
       d="m 38.901764,163.61619 0.964229,-0.0514 -0.558089,1.57894 0.534909,-0.0143 -0.494122,1.52057 0.510527,-0.0268 -0.864673,1.632 0.121157,-1.09267 -0.593154,-0.0131 0.448367,-1.52221 -0.572293,-0.0354 z"
       id="path14372"
       sodipodi:nodetypes="cccccccccccc" /><path
       style="fill:#44aa00;stroke:#000000;stroke-width:0.0548915;stroke-dasharray:none;stroke-opacity:1"
       d="m 160.41656,180.01172 v 5.29168 h 5.29166 v -5.29168 z"
       id="path8813-5-5-2-0-6-1-9"
       sodipodi:nodetypes="ccccc" /><path
       style="fill:#ffff00;fill-opacity:1;stroke:#ffffff;stroke-width:0;stroke-dasharray:none;stroke-opacity:1"
       d="m 162.94301,180.48712 0.96423,-0.0514 -0.55809,1.57894 0.53491,-0.0143 -0.49412,1.52057 0.51053,-0.0268 -0.86468,1.632 0.12116,-1.09267 -0.59315,-0.0131 0.44836,-1.52221 -0.57229,-0.0354 z"
       id="path14372-4"
       sodipodi:nodetypes="cccccccccccc" /><path
       style="fill:#44aa00;stroke:#000000;stroke-width:0.0548915;stroke-dasharray:none;stroke-opacity:1"
       d="m 37.6557,103.14143 v 5.29169 h 5.29166 v -5.29169 z"
       id="path8813-5-5-2-0-6-1-4"
       sodipodi:nodetypes="ccccc" /><path
       style="fill:#ffff00;fill-opacity:1;stroke:#ffffff;stroke-width:0;stroke-dasharray:none;stroke-opacity:1"
       d="m 40.182151,103.61683 0.964229,-0.0514 -0.558089,1.57895 0.534909,-0.0143 -0.494122,1.52056 0.510527,-0.0268 -0.864673,1.63201 0.121157,-1.09268 -0.593154,-0.0131 0.448367,-1.5222 -0.572293,-0.0354 z"
       id="path14372-5"
       sodipodi:nodetypes="cccccccccccc" /><path
       style="fill:#44aa00;stroke:#000000;stroke-width:0.0548915;stroke-dasharray:none;stroke-opacity:1"
       d="m 58.782103,74.129442 v 5.291686 h 5.29166 v -5.291686 z"
       id="path8813-5-5-2-0-6-1-0"
       sodipodi:nodetypes="ccccc" /><path
       style="fill:#ffff00;fill-opacity:1;stroke:#ffffff;stroke-width:0;stroke-dasharray:none;stroke-opacity:1"
       d="m 61.308554,74.604843 0.964229,-0.0514 -0.558089,1.578945 0.534909,-0.0143 -0.494122,1.520564 0.510527,-0.0268 -0.864673,1.632005 0.121157,-1.092673 -0.593154,-0.0131 0.448367,-1.522205 -0.572293,-0.0354 z"
       id="path14372-3"
       sodipodi:nodetypes="cccccccccccc" /></g></svg>
